<svg height="512" viewBox="0 0 512 512" width="512" xmlns="http://www.w3.org/2000/svg"><g><g><path d="m16 456h480v32h-480z" fill="#57565c"/><path d="m192 24h128v432h-128z" fill="#cca400"/><path d="m64 128h128v328h-128z" fill="#ab2300"/><path d="m320 192h128v264h-128z" fill="#91cc04"/><path d="m248 56h8v64" fill="#e0e0e2"/></g><g><path d="m496 448h-40v-256a8 8 0 0 0 -8-8h-120v-160a8 8 0 0 0 -8-8h-128a8 8 0 0 0 -8 8v96h-120a8 8 0 0 0 -8 8v320h-40a8 8 0 0 0 -8 8v32a8 8 0 0 0 8 8h480a8 8 0 0 0 8-8v-32a8 8 0 0 0 -8-8zm-168-248h112v248h-112zm-128-168h112v416h-112zm-128 104h112v312h-112zm416 344h-464v-16h464z"/><path d="m248 64v56a8 8 0 0 0 16 0v-64a8 8 0 0 0 -8-8h-8a8 8 0 0 0 0 16z"/><path d="m368 280a8 8 0 0 0 0 16h32a8 8 0 0 0 8-8v-64a8 8 0 0 0 -8-8h-32a8 8 0 0 0 0 16h24v16h-16a8 8 0 0 0 0 16h16v16z"/><path d="m144 152h-32a8 8 0 0 0 0 16h24v4.687l-29.657 29.656a8 8 0 0 0 -2.343 5.657v16a8 8 0 0 0 8 8h32a8 8 0 0 0 0-16h-24v-4.687l29.657-29.656a8 8 0 0 0 2.343-5.657v-16a8 8 0 0 0 -8-8z"/></g></g></svg>